<?xml version="1.0" ?><svg data-name="Layer 1" id="Layer_1" viewBox="0 0 64 64" xmlns="http://www.w3.org/2000/svg" xmlns:xlink="http://www.w3.org/1999/xlink"><defs><style>.cls-1{fill:url(#linear-gradient);}.cls-2{fill:#fff;}</style><linearGradient gradientUnits="userSpaceOnUse" id="linear-gradient" x1="5.34" x2="57.34" y1="7.74" y2="55.07"><stop offset="0" stop-color="#f7941e"/><stop offset="1" stop-color="#ef4136"/></linearGradient></defs><title/><rect class="cls-1" height="58" rx="16.02" ry="16.02" width="58" x="3" y="3"/><path class="cls-2" d="M35.82,13.67h-6A15.7,15.7,0,0,0,14.34,29.59l0.27,18.78a2.5,2.5,0,0,0,3.48,2.27l7.14-5.31,10.59,0.11A15.69,15.69,0,0,0,51.26,29.56,15.69,15.69,0,0,0,35.82,13.67ZM25.66,32a2.23,2.23,0,1,1,2.23-2.23A2.23,2.23,0,0,1,25.66,32ZM33,32a2.23,2.23,0,1,1,2.23-2.23A2.23,2.23,0,0,1,33,32Zm7,0a2.23,2.23,0,1,1,2.23-2.23A2.23,2.23,0,0,1,40,32Z"/></svg>